REM MD5 39cf78b990412837504f9899ac6c3bb9
FILE "Tomb Raider 2 (Japan).bin" BINARY
  TRACK 01 MODE2/2352
    INDEX 01 00:00:00
  TRACK 02 AUDIO
    INDEX 00 23:20:31
    INDEX 01 23:22:31
  TRACK 03 AUDIO
    INDEX 00 24:47:65
    INDEX 01 24:49:65
  TRACK 04 AUDIO
    INDEX 00 26:44:14
    INDEX 01 26:46:14
  TRACK 05 AUDIO
    INDEX 00 29:01:74
    INDEX 01 29:03:74
  TRACK 06 AUDIO
    INDEX 00 29:12:05
    INDEX 01 29:14:05
  TRACK 07 AUDIO
    INDEX 00 29:20:43
    INDEX 01 29:22:43
  TRACK 08 AUDIO
    INDEX 00 29:27:44
    INDEX 01 29:29:44
  TRACK 09 AUDIO
    INDEX 00 29:34:45
    INDEX 01 29:36:45
  TRACK 10 AUDIO
    INDEX 00 29:42:12
    INDEX 01 29:44:12
  TRACK 11 AUDIO
    INDEX 00 29:55:16
    INDEX 01 29:57:16
  TRACK 12 AUDIO
    INDEX 00 30:12:44
    INDEX 01 30:14:44
  TRACK 13 AUDIO
    INDEX 00 30:22:30
    INDEX 01 30:24:30
  TRACK 14 AUDIO
    INDEX 00 30:33:08
    INDEX 01 30:35:08
  TRACK 15 AUDIO
    INDEX 00 30:40:10
    INDEX 01 30:42:10
  TRACK 16 AUDIO
    INDEX 00 30:47:11
    INDEX 01 30:49:11
  TRACK 17 AUDIO
    INDEX 00 30:54:13
    INDEX 01 30:56:13
  TRACK 18 AUDIO
    INDEX 00 31:04:49
    INDEX 01 31:06:49
  TRACK 19 AUDIO
    INDEX 00 31:11:50
    INDEX 01 31:13:50
  TRACK 20 AUDIO
    INDEX 00 31:18:52
    INDEX 01 31:20:52
  TRACK 21 AUDIO
    INDEX 00 31:25:55
    INDEX 01 31:27:55
  TRACK 22 AUDIO
    INDEX 00 31:32:58
    INDEX 01 31:34:58
  TRACK 23 AUDIO
    INDEX 00 31:39:60
    INDEX 01 31:41:60
  TRACK 24 AUDIO
    INDEX 00 31:58:34
    INDEX 01 32:00:34
  TRACK 25 AUDIO
    INDEX 00 32:09:35
    INDEX 01 32:11:35
  TRACK 26 AUDIO
    INDEX 00 32:16:36
    INDEX 01 32:18:36
  TRACK 27 AUDIO
    INDEX 00 33:10:26
    INDEX 01 33:12:26
  TRACK 28 AUDIO
    INDEX 00 35:10:37
    INDEX 01 35:12:37
  TRACK 29 AUDIO
    INDEX 00 37:10:20
    INDEX 01 37:12:20
  TRACK 30 AUDIO
    INDEX 00 39:58:54
    INDEX 01 40:00:54
  TRACK 31 AUDIO
    INDEX 00 43:04:39
    INDEX 01 43:06:39
  TRACK 32 AUDIO
    INDEX 00 43:14:21
    INDEX 01 43:16:21
  TRACK 33 AUDIO
    INDEX 00 43:20:69
    INDEX 01 43:22:69
  TRACK 34 AUDIO
    INDEX 00 43:39:29
    INDEX 01 43:41:29
  TRACK 35 AUDIO
    INDEX 00 44:35:63
    INDEX 01 44:37:63
  TRACK 36 AUDIO
    INDEX 00 44:57:54
    INDEX 01 44:59:54
  TRACK 37 AUDIO
    INDEX 00 47:38:48
    INDEX 01 47:40:48
  TRACK 38 AUDIO
    INDEX 00 47:52:61
    INDEX 01 47:54:61
  TRACK 39 AUDIO
    INDEX 00 48:06:18
    INDEX 01 48:08:18
  TRACK 40 AUDIO
    INDEX 00 48:23:06
    INDEX 01 48:25:06
  TRACK 41 AUDIO
    INDEX 00 48:42:69
    INDEX 01 48:44:69
  TRACK 42 AUDIO
    INDEX 00 49:44:00
    INDEX 01 49:46:00
  TRACK 43 AUDIO
    INDEX 00 50:19:30
    INDEX 01 50:21:30
  TRACK 44 AUDIO
    INDEX 00 50:25:59
    INDEX 01 50:27:59
  TRACK 45 AUDIO
    INDEX 00 50:41:58
    INDEX 01 50:43:58
  TRACK 46 AUDIO
    INDEX 00 50:53:56
    INDEX 01 50:55:56
  TRACK 47 AUDIO
    INDEX 00 51:08:08
    INDEX 01 51:10:08
  TRACK 48 AUDIO
    INDEX 00 51:18:41
    INDEX 01 51:20:41
  TRACK 49 AUDIO
    INDEX 00 54:03:49
    INDEX 01 54:05:49
  TRACK 50 AUDIO
    INDEX 00 55:16:74
    INDEX 01 55:18:74
  TRACK 51 AUDIO
    INDEX 00 55:26:46
    INDEX 01 55:28:46
  TRACK 52 AUDIO
    INDEX 00 56:10:54
    INDEX 01 56:12:54
  TRACK 53 AUDIO
    INDEX 00 56:22:39
    INDEX 01 56:24:39
  TRACK 54 AUDIO
    INDEX 00 57:13:45
    INDEX 01 57:15:45
  TRACK 55 AUDIO
    INDEX 00 60:45:14
    INDEX 01 60:47:14
  TRACK 56 AUDIO
    INDEX 00 64:16:71
    INDEX 01 64:18:71
  TRACK 57 AUDIO
    INDEX 00 66:04:49
    INDEX 01 66:06:49
  TRACK 58 AUDIO
    INDEX 00 66:30:19
    INDEX 01 66:32:19
  TRACK 59 AUDIO
    INDEX 00 66:53:62
    INDEX 01 66:55:62
  TRACK 60 AUDIO
    INDEX 00 67:13:41
    INDEX 01 67:15:41
  TRACK 61 AUDIO
    INDEX 00 70:02:13
    INDEX 01 70:04:13
REM LEADOUT 70:21:67
